<svg xmlns="http://www.w3.org/2000/svg" viewBox="0 0 17 17">
  <g id="Page-1" stroke="none" stroke-width="1" fill="none" fill-rule="evenodd" opacity=".5">
    <g id="Icon" fill="#000">
      <path d="M10 1a2 2 0 012 2v2h2a2 2 0 012 2v7a2 2 0 01-2 2H7a2 2 0 01-2-2v-2H3a2 2 0 01-2-2V3a2 2 0 012-2h7zm4 5h-2v4a2 2 0 01-2 2H6v2a1 1 0 001 1h7a1 1 0 001-1V7a1 1 0 00-1-1zm-4-4H3a1 1 0 00-1 1v7a1 1 0 001 1h7a1 1 0 001-1V3a1 1 0 00-1-1z" id="Combined-Shape" fill-rule="nonzero"/>
      <path d="M6 12h4a2 2 0 002-2V6h2a1 1 0 011 1v7a1 1 0 01-1 1H7a1 1 0 01-1-1v-2z" id="Rectangle" fill-opacity=".35"/>
    </g>
  </g>
</svg>
