<svg width="15" height="10" viewBox="0 0 15 10" fill="none" xmlns="http://www.w3.org/2000/svg">
<path d="M2.84375 9.58008H8.62695C9.99805 9.58008 10.8125 8.7832 10.8125 7.41797V6.68555L12.8809 8.4375C13.1094 8.63086 13.3672 8.76562 13.6016 8.76562C14.0938 8.76562 14.4277 8.40234 14.4277 7.875V2.12695C14.4277 1.59961 14.0938 1.24219 13.6016 1.24219C13.3672 1.24219 13.1094 1.37109 12.8809 1.57031L10.8125 3.31641V2.57227C10.8125 1.21289 9.99805 0.416016 8.62695 0.416016H2.84375C1.52539 0.416016 0.658203 1.21289 0.658203 2.57227V7.42969C0.658203 8.79492 1.47266 9.58008 2.84375 9.58008ZM3.00781 8.69531C2.11133 8.69531 1.60156 8.22656 1.60156 7.27734V2.71289C1.60156 1.76953 2.11133 1.30078 3.00781 1.30078H8.46289C9.35352 1.30078 9.86914 1.76953 9.86914 2.71289V7.27734C9.86914 8.22656 9.35352 8.69531 8.46289 8.69531H3.00781ZM13.2969 7.63477L10.8125 5.58984V4.41211L13.2969 2.37305C13.3438 2.33203 13.3789 2.30859 13.4258 2.30859C13.4902 2.30859 13.5195 2.35547 13.5195 2.43164V7.57031C13.5195 7.64648 13.4902 7.69922 13.4258 7.69922C13.3789 7.69922 13.3438 7.66992 13.2969 7.63477Z" fill="black"/>
</svg>
