<svg width="13" height="12" viewBox="0 0 13 12" fill="none" xmlns="http://www.w3.org/2000/svg">
<path d="M6.66797 11.6758C9.77344 11.6758 12.3457 9.10352 12.3457 5.99805C12.3457 2.89258 9.76758 0.320312 6.66211 0.320312C3.5625 0.320312 0.990234 2.89258 0.990234 5.99805C0.990234 9.10352 3.5625 11.6758 6.66797 11.6758ZM6.05273 8.7168C5.85352 8.7168 5.69531 8.63477 5.54297 8.44141L4.16602 6.74805C4.07812 6.63672 4.02539 6.50781 4.02539 6.37891C4.02539 6.11523 4.23047 5.9043 4.49414 5.9043C4.6582 5.9043 4.78711 5.95703 4.92188 6.13867L6.0293 7.5625L8.37305 3.80664C8.47852 3.625 8.625 3.53711 8.7832 3.53711C9.04102 3.53711 9.27539 3.71289 9.27539 3.98242C9.27539 4.10547 9.20508 4.24023 9.13477 4.35742L6.52734 8.43555C6.41016 8.62305 6.24609 8.7168 6.05273 8.7168Z" fill="white"/>
</svg>
