<svg width="13" height="12" viewBox="0 0 13 12" fill="none" xmlns="http://www.w3.org/2000/svg">
<path d="M6.66797 11.6758C9.77344 11.6758 12.3457 9.10352 12.3457 5.99805C12.3457 2.89258 9.76758 0.320312 6.66211 0.320312C3.5625 0.320312 0.990234 2.89258 0.990234 5.99805C0.990234 9.10352 3.5625 11.6758 6.66797 11.6758ZM3.3457 2.44141C3.90234 1.92578 4.57617 1.52734 5.32031 1.31055C4.93945 1.69727 4.60547 2.25391 4.35938 2.92773C3.9668 2.80469 3.62695 2.64062 3.3457 2.44141ZM8.02148 1.31641C8.76562 1.5332 9.43359 1.92578 9.99023 2.44727C9.70898 2.64062 9.36914 2.80469 8.98242 2.92773C8.73047 2.25391 8.40234 1.70312 8.02148 1.31641ZM7.04297 1.45703C7.51172 1.67383 7.93945 2.27734 8.24414 3.11523C7.875 3.17969 7.4707 3.22656 7.04297 3.23828V1.45703ZM5.09766 3.11523C5.40234 2.27734 5.83008 1.67383 6.29883 1.45703V3.23828C5.86523 3.22656 5.4668 3.17969 5.09766 3.11523ZM1.80469 5.62891C1.88086 4.63867 2.26172 3.72461 2.84766 2.98047C3.1875 3.23828 3.63281 3.45508 4.14258 3.625C3.99023 4.22852 3.89062 4.90234 3.86719 5.62891H1.80469ZM9.47461 5.62891C9.44531 4.90234 9.35156 4.22852 9.19336 3.625C9.70898 3.45508 10.1484 3.24414 10.4883 2.98633C11.0742 3.72461 11.4551 4.63867 11.5371 5.62891H9.47461ZM4.62305 5.62891C4.65234 4.97852 4.74023 4.36328 4.88086 3.8125C5.32031 3.90625 5.80078 3.96484 6.29883 3.98242V5.62891H4.62305ZM7.04297 5.62891V3.98242C7.54102 3.96484 8.01562 3.90625 8.46094 3.8125C8.5957 4.36328 8.68945 4.97852 8.71289 5.62891H7.04297ZM1.80469 6.36719H3.86719C3.89062 7.10547 3.99023 7.78516 4.14844 8.40039C3.63867 8.56445 3.19922 8.77539 2.86523 9.02734C2.26758 8.2832 1.88086 7.36328 1.80469 6.36719ZM4.62305 6.36719H6.29883V8.04297C5.80078 8.06055 5.32617 8.11914 4.88672 8.20703C4.74023 7.64453 4.64648 7.02344 4.62305 6.36719ZM7.04297 8.04297V6.36719H8.71875C8.68945 7.02344 8.5957 7.64453 8.45508 8.20703C8.00977 8.11914 7.53516 8.06055 7.04297 8.04297ZM9.19336 8.40039C9.35156 7.78516 9.45117 7.10547 9.47461 6.36719H11.5371C11.4551 7.36328 11.0742 8.2832 10.4766 9.02734C10.1367 8.77539 9.69727 8.56445 9.19336 8.40039ZM5.10352 8.91016C5.47266 8.83984 5.87109 8.79883 6.29883 8.78125V10.5449C5.83594 10.3281 5.4082 9.73047 5.10352 8.91016ZM7.04297 8.78125C7.4707 8.79883 7.86914 8.83984 8.23242 8.91016C7.92773 9.73047 7.50586 10.3281 7.04297 10.5449V8.78125ZM8.97656 9.0918C9.35742 9.21484 9.69727 9.37305 9.97266 9.56641C9.42188 10.0762 8.75977 10.4629 8.02734 10.6797C8.40234 10.2988 8.73047 9.75391 8.97656 9.0918ZM3.36328 9.56641C3.64453 9.37305 3.97852 9.21484 4.36523 9.0918C4.61133 9.75391 4.93359 10.2988 5.31445 10.6797C4.58203 10.4629 3.91406 10.0762 3.36328 9.56641Z" fill="black"/>
</svg>
