<?xml version="1.0" encoding="UTF-8"?>
<svg width="16px" height="14px" viewBox="0 0 16 14" version="1.1" xmlns="http://www.w3.org/2000/svg" xmlns:xlink="http://www.w3.org/1999/xlink">
    <title>❤</title>
    <g id="Symbols" stroke="none" stroke-width="1" fill="none" fill-rule="evenodd">
        <g id="Component/SharedBadge" transform="translate(-130.000000, -39.000000)" fill="#FF6961" fill-rule="nonzero">
            <g id="Group" transform="translate(20.000000, 15.000000)">
                <path d="M118,38 L124.787574,31.1584789 C125.328996,30.6127545 125.688843,29.9782944 125.867116,29.2550986 C126.045388,28.5319028 126.044288,27.8120345 125.863814,27.0954939 C125.683341,26.3789533 125.324594,25.7544759 124.787574,25.2220618 C124.237349,24.6763374 123.608993,24.3136303 122.902504,24.1339405 C122.196015,23.9542508 121.490627,23.95536 120.786339,24.1372681 C120.082051,24.3191763 119.452594,24.6807742 118.897967,25.2220618 L118,26.1005451 L117.102033,25.2220618 C116.551808,24.6807742 115.923451,24.3191763 115.216962,24.1372681 C114.510474,23.95536 113.803985,23.9542508 113.097496,24.1339405 C112.391007,24.3136303 111.762651,24.6763374 111.212426,25.2220618 C110.675406,25.7544759 110.316659,26.3789533 110.136186,27.0954939 C109.955712,27.8120345 109.954612,28.5319028 110.132884,29.2550986 C110.311157,29.9782944 110.671004,30.6127545 111.212426,31.1584789 L118,38 Z" id="❤"></path>
            </g>
        </g>
    </g>
</svg>