<svg width="18" height="12" viewBox="0 0 18 12" fill="none" xmlns="http://www.w3.org/2000/svg">
<path d="M1.73047 1.5332C1.73047 2.14844 2.24023 2.66992 2.86133 2.66992C3.48828 2.66992 3.99805 2.14844 3.99805 1.5332C3.99805 0.912109 3.48828 0.402344 2.86133 0.402344C2.24023 0.402344 1.73047 0.912109 1.73047 1.5332ZM13.6777 1.5332C13.6777 2.14844 14.1816 2.66992 14.8027 2.66992C15.4297 2.66992 15.9395 2.14844 15.9395 1.5332C15.9395 0.912109 15.4297 0.402344 14.8027 0.402344C14.1816 0.402344 13.6777 0.912109 13.6777 1.5332ZM0.417969 7.45703C0.412109 7.7793 0.605469 7.9668 0.880859 7.9668C1.15625 7.9668 1.34375 7.7793 1.34961 7.45703L1.34375 5.125C1.34375 5.00195 1.4082 4.92578 1.50781 4.92578C1.60742 4.92578 1.66602 5.00195 1.66602 5.125V11.0547C1.66602 11.418 1.88867 11.6172 2.19336 11.6172C2.49219 11.6172 2.71484 11.418 2.71484 11.0547V7.36914C2.71484 7.25195 2.77344 7.17578 2.86133 7.17578C2.94922 7.17578 3.01367 7.25195 3.01367 7.36914V11.0547C3.01367 11.418 3.23633 11.6172 3.53516 11.6172C3.83984 11.6172 4.0625 11.418 4.0625 11.0547V5.125C4.0625 5.00195 4.10938 4.92578 4.21484 4.92578C4.31445 4.92578 4.37305 5.00195 4.37305 5.125L4.37891 7.45703C4.37305 7.7793 4.57227 7.9668 4.8418 7.9668C5.12305 7.9668 5.31055 7.7793 5.31055 7.45703V5.16602C5.31055 3.70117 4.49023 3.13281 2.86133 3.13281C1.23828 3.13281 0.412109 3.70117 0.412109 5.16602L0.417969 7.45703ZM12.3594 7.45703C12.3594 7.7793 12.5527 7.9668 12.8281 7.9668C13.0918 7.9668 13.2969 7.7793 13.2969 7.45703V5.125C13.2969 5.00195 13.3555 4.92578 13.4492 4.92578C13.5547 4.92578 13.6074 5.00195 13.6074 5.125V11.0547C13.6074 11.418 13.8359 11.6172 14.1406 11.6172C14.4336 11.6172 14.6504 11.418 14.6504 11.0547V7.36914C14.6504 7.25195 14.7207 7.17578 14.8027 7.17578C14.9023 7.17578 14.9492 7.25195 14.9492 7.36914V11.0547C14.9492 11.418 15.1777 11.6172 15.4766 11.6172C15.7812 11.6172 15.998 11.418 15.998 11.0547V5.125C15.998 5.00195 16.0566 4.92578 16.1562 4.92578C16.2559 4.92578 16.3203 5.00195 16.3203 5.125V7.45703C16.3203 7.7793 16.5137 7.9668 16.7891 7.9668C17.0645 7.9668 17.252 7.7793 17.252 7.45703V5.16602C17.252 3.70117 16.4258 3.13281 14.8027 3.13281C13.1797 3.13281 12.3594 3.70117 12.3594 5.16602V7.45703ZM6.6875 6.71289C7.08594 6.71289 7.4082 6.39648 7.4082 5.99805C7.4082 5.59961 7.08594 5.27734 6.6875 5.27734C6.28906 5.27734 5.97266 5.59961 5.97266 5.99805C5.97266 6.39648 6.28906 6.71289 6.6875 6.71289ZM8.83789 6.71289C9.23633 6.71289 9.55859 6.39648 9.55859 5.99805C9.55859 5.59961 9.23633 5.27734 8.83789 5.27734C8.43945 5.27734 8.12305 5.59961 8.12305 5.99805C8.12305 6.39648 8.43945 6.71289 8.83789 6.71289ZM10.9824 6.71289C11.3809 6.71289 11.7031 6.39648 11.7031 5.99805C11.7031 5.59961 11.3809 5.27734 10.9824 5.27734C10.584 5.27734 10.2676 5.59961 10.2676 5.99805C10.2676 6.39648 10.584 6.71289 10.9824 6.71289Z" fill="black"/>
</svg>
