<?xml version="1.0" encoding="UTF-8"?>
<svg width="18px" height="18px" viewBox="0 0 18 18" version="1.1" xmlns="http://www.w3.org/2000/svg" xmlns:xlink="http://www.w3.org/1999/xlink">
    <title>ic/sm/facebook/icSmFacebook Copy 2</title>
    <defs>
        <filter color-interpolation-filters="auto" id="filter-1">
            <feColorMatrix in="SourceGraphic" type="matrix" values="0 0 0 0 1.000000 0 0 0 0 1.000000 0 0 0 0 1.000000 0 0 0 1.000000 0"></feColorMatrix>
        </filter>
        <filter color-interpolation-filters="auto" id="filter-2">
            <feColorMatrix in="SourceGraphic" type="matrix" values="0 0 0 0 1.000000 0 0 0 0 0.411765 0 0 0 0 0.380392 0 0 0 1.000000 0"></feColorMatrix>
        </filter>
    </defs>
    <g id="Page-1" stroke="none" stroke-width="1" fill="none" fill-rule="evenodd" opacity="0.900000036">
        <g id="Desktop_x1440_p1---Canceled" transform="translate(-661.000000, -1082.000000)">
            <g id="Group-56-Copy-3" transform="translate(514.000000, 89.000000)">
                <g id="ic/sm/facebook/icSmFacebook-Copy-2" transform="translate(145.000000, 991.000000)" filter="url(#filter-1)">
                    <g filter="url(#filter-2)" id="Group">
                        <g transform="translate(2.750000, 2.750000)">
                            <path d="M8.25001637,0 C6.00943452,0 5.72848577,0.00949704371 4.84853555,0.0496466147 C3.97041924,0.0896979404 3.3706973,0.229173489 2.84593652,0.43313069 C2.30342608,0.643932312 1.84334344,0.926027259 1.38466897,1.38466897 C0.926027259,1.84334344 0.643932312,2.30342608 0.43313069,2.84593652 C0.229173489,3.3706973 0.0896979404,3.97041924 0.0496466147,4.84853555 C0.00949704371,5.72848577 0,6.00943452 0,8.25001637 C0,10.4905655 0.00949704371,10.7715142 0.0496466147,11.6514645 C0.0896979404,12.5295808 0.229173489,13.1293027 0.43313069,13.6540635 C0.643932312,14.1965739 0.926027259,14.6566566 1.38466897,15.115331 C1.84334344,15.5739727 2.30342608,15.8560677 2.84593652,16.0669021 C3.3706973,16.2708265 3.97041924,16.4103021 4.84853555,16.4503534 C5.72848577,16.490503 6.00943452,16.5 8.25001637,16.5 C10.4905655,16.5 10.7715142,16.490503 11.6514645,16.4503534 C12.5295808,16.4103021 13.1293027,16.2708265 13.6540635,16.0669021 C14.1965739,15.8560677 14.6566566,15.5739727 15.115331,15.115331 C15.5739727,14.6566566 15.8560677,14.1965739 16.0669021,13.6540635 C16.2708265,13.1293027 16.4103021,12.5295808 16.4503534,11.6514645 C16.490503,10.7715142 16.5,10.4905655 16.5,8.25001637 C16.5,6.00943452 16.490503,5.72848577 16.4503534,4.84853555 C16.4103021,3.97041924 16.2708265,3.3706973 16.0669021,2.84593652 C15.8560677,2.30342608 15.5739727,1.84334344 15.115331,1.38466897 C14.6566566,0.926027259 14.1965739,0.643932312 13.6540635,0.43313069 C13.1293027,0.229173489 12.5295808,0.0896979404 11.6514645,0.0496466147 C10.7715142,0.00949704371 10.4905655,0 8.25001637,0 Z M8.25001637,1.48648383 C10.4528393,1.48648383 10.7137788,1.49490018 11.583708,1.53459127 C12.3880748,1.57126951 12.8249061,1.70566905 13.1156139,1.81865112 C13.5007026,1.96831143 13.7755274,2.14708509 14.0642048,2.43579522 C14.3529149,2.7244726 14.5316886,2.9992974 14.6813489,3.38438615 C14.7943309,3.67509393 14.9287305,4.11192519 14.9654087,4.91629204 C15.0050998,5.78622125 15.0135162,6.04716071 15.0135162,8.25001637 C15.0135162,10.4528393 15.0050998,10.7137788 14.9654087,11.583708 C14.9287305,12.3880748 14.7943309,12.8249061 14.6813489,13.1156139 C14.5316886,13.5007026 14.3529149,13.7755274 14.0642048,14.0642048 C13.7755274,14.3529149 13.5007026,14.5316886 13.1156139,14.6813489 C12.8249061,14.7943309 12.3880748,14.9287305 11.583708,14.9654087 C10.7139097,15.0050998 10.453003,15.0135162 8.25001637,15.0135162 C6.04699697,15.0135162 5.786123,15.0050998 4.91629204,14.9654087 C4.11192519,14.9287305 3.67509393,14.7943309 3.38438615,14.6813489 C2.9992974,14.5316886 2.7244726,14.3529149 2.43579522,14.0642048 C2.14711784,13.7755274 1.96831143,13.5007026 1.81865112,13.1156139 C1.70566905,12.8249061 1.57126951,12.3880748 1.53459127,11.583708 C1.49490018,10.7137788 1.48648383,10.4528393 1.48648383,8.25001637 C1.48648383,6.04716071 1.49490018,5.78622125 1.53459127,4.91629204 C1.57126951,4.11192519 1.70566905,3.67509393 1.81865112,3.38438615 C1.96831143,2.9992974 2.14708509,2.7244726 2.43579522,2.43579522 C2.7244726,2.14708509 2.9992974,1.96831143 3.38438615,1.81865112 C3.67509393,1.70566905 4.11192519,1.57126951 4.91629204,1.53459127 C5.78622125,1.49490018 6.04716071,1.48648383 8.25001637,1.48648383 L8.25001637,1.48648383 Z" id="Fill-1" fill="#FFFFFF"></path>
                            <path d="M8.25001637,11 C6.73120985,11 5.5,9.76879015 5.5,8.25001637 C5.5,6.73120985 6.73120985,5.5 8.25001637,5.5 C9.76879015,5.5 11,6.73120985 11,8.25001637 C11,9.76879015 9.76879015,11 8.25001637,11 Z M8.25001637,4.01351617 C5.91023954,4.01351617 4.01351617,5.91023954 4.01351617,8.25001637 C4.01351617,10.5897605 5.91023954,12.4864838 8.25001637,12.4864838 C10.5897605,12.4864838 12.4864838,10.5897605 12.4864838,8.25001637 C12.4864838,5.91023954 10.5897605,4.01351617 8.25001637,4.01351617 L8.25001637,4.01351617 Z" id="Fill-4" fill="#FFFFFF"></path>
                            <path d="M13.6438787,3.84613896 C13.6438787,4.39290669 13.2006288,4.8361239 12.653861,4.8361239 C12.1071261,4.8361239 11.6638761,4.39290669 11.6638761,3.84613896 C11.6638761,3.29937123 12.1071261,2.85612128 12.653861,2.85612128 C13.2006288,2.85612128 13.6438787,3.29937123 13.6438787,3.84613896" id="Fill-5" fill="#FFFFFF"></path>
                        </g>
                    </g>
                </g>
            </g>
        </g>
    </g>
</svg>