<?xml version="1.0" encoding="UTF-8"?>
<svg width="28px" height="28px" viewBox="0 0 28 28" version="1.1" xmlns="http://www.w3.org/2000/svg" xmlns:xlink="http://www.w3.org/1999/xlink">
    <title>Group 35</title>
    <g id="Page-1" stroke="none" stroke-width="1" fill="none" fill-rule="evenodd">
        <g id="Desktop_x1440_p1---Canceled" transform="translate(-846.000000, -635.000000)">
            <g id="Group-56-Copy-3" transform="translate(514.000000, 89.000000)">
                <g id="Group-53-Copy-3" transform="translate(34.000000, 525.000000)">
                    <g id="Group-52" transform="translate(2.000000, 9.000000)">
                        <g id="circle-mail" transform="translate(296.000000, 12.000000)">
                            <circle id="Oval-Copy-3" fill-opacity="0.15" fill="#0B84FF" cx="14" cy="14" r="14"></circle>
                            <path d="M20.2857812,12.569375 C20.3853125,12.4902604 20.5333333,12.5642708 20.5333333,12.6893229 L20.5333333,17.9083333 C20.5333333,18.5846354 19.9846354,19.1333333 19.3083333,19.1333333 L8.69166667,19.1333333 C8.01536458,19.1333333 7.46666667,18.5846354 7.46666667,17.9083333 L7.46666667,12.691875 C7.46666667,12.5642708 7.61213542,12.4928125 7.71421875,12.5719271 C8.28588542,13.0159896 9.04385417,13.58 11.6469792,15.4710937 C12.1854687,15.8641146 13.0940104,16.6909896 14,16.6858854 C14.9110937,16.6935417 15.8375,15.8488021 16.3555729,15.4710937 C18.9586979,13.58 19.7141146,13.0134375 20.2857812,12.569375 Z M14,15.8666667 C14.5920833,15.876875 15.4444792,15.1214583 15.8732292,14.8101042 C19.2598437,12.3524479 19.5176042,12.1380729 20.2985417,11.5255729 C20.4465625,11.4107292 20.5333333,11.2320833 20.5333333,11.0432292 L20.5333333,10.5583333 C20.5333333,9.88203125 19.9846354,9.33333333 19.3083333,9.33333333 L8.69166667,9.33333333 C8.01536458,9.33333333 7.46666667,9.88203125 7.46666667,10.5583333 L7.46666667,11.0432292 C7.46666667,11.2320833 7.5534375,11.4081771 7.70145833,11.5255729 C8.48239583,12.1355208 8.74015625,12.3524479 12.1267708,14.8101042 C12.5555208,15.1214583 13.4079167,15.876875 14,15.8666667 Z" id="Shape" fill="#8CB2F8" fill-rule="nonzero"></path>
                        </g>
                    </g>
                </g>
            </g>
        </g>
    </g>
</svg>