<?xml version="1.0" encoding="UTF-8"?>
<svg width="20px" height="31px" viewBox="0 0 20 31" version="1.1" xmlns="http://www.w3.org/2000/svg" xmlns:xlink="http://www.w3.org/1999/xlink">
    <title>Group</title>
    <g id="Page-1" stroke="none" stroke-width="1" fill="none" fill-rule="evenodd" opacity="0.800000012">
        <g id="Desktop_x1440_p1---Canceled" transform="translate(-652.000000, -111.000000)" fill-rule="nonzero">
            <g id="Group-56-Copy-3" transform="translate(514.000000, 89.000000)">
                <g id="Group-2" transform="translate(45.000000, 0.000000)">
                    <g id="Group" transform="translate(93.000000, 22.000000)">
                        <path d="M19.7230827,9 C20.0923058,9 20.0923058,10 19.7230827,10 L13,10 L13,9 L19.7230827,9 Z" id="Path" fill="#FF3B30"></path>
                        <path d="M11.4998119,28.1025175 C11.1748853,27.7281703 11.0124448,27.0917843 11.0124448,26.1933597 L11.0124448,2.32596404 C11.0124448,-0.775321348 4.32863777,-0.775321348 4.32863777,2.32596404 L4.32863777,8.3188419 L0.314528193,8.3188419 C-0.104842731,8.3188419 -0.104842731,9.77464671 0.314528193,9.77464671 L4.32863777,9.77464671 L4.32868353,23.2778087 C4.33097142,24.901545 4.44701339,26.1803397 4.67676368,27.1142372 C4.90884762,28.0576118 5.3497705,28.8437278 5.99957809,29.4726737 C7.0516889,30.4908912 8.59880841,31 10.6411196,31 C13.7045178,31 15.8241141,29.4577052 17,26.3730269 L16.2109512,25.9687425 C15.4373228,27.765636 14.3852578,28.6640606 13.0547103,28.6640606 C12.3429923,28.6640606 11.8246928,28.4769091 11.4998119,28.1025175 Z" id="Path" fill="#FFFFFF"></path>
                    </g>
                </g>
            </g>
        </g>
    </g>
</svg>