<?xml version="1.0" encoding="UTF-8"?>
<svg width="18px" height="16px" viewBox="0 0 18 16" version="1.1" xmlns="http://www.w3.org/2000/svg" xmlns:xlink="http://www.w3.org/1999/xlink">
    <title>ic/twitter</title>
    <defs>
        <filter color-interpolation-filters="auto" id="filter-1">
            <feColorMatrix in="SourceGraphic" type="matrix" values="0 0 0 0 1.000000 0 0 0 0 1.000000 0 0 0 0 1.000000 0 0 0 1.000000 0"></feColorMatrix>
        </filter>
        <filter color-interpolation-filters="auto" id="filter-2">
            <feColorMatrix in="SourceGraphic" type="matrix" values="0 0 0 0 1.000000 0 0 0 0 0.411765 0 0 0 0 0.380392 0 0 0 1.000000 0"></feColorMatrix>
        </filter>
    </defs>
    <g id="Page-1" stroke="none" stroke-width="1" fill="none" fill-rule="evenodd" opacity="0.900000036">
        <g id="Desktop_x1440_p1---Canceled" transform="translate(-694.000000, -1083.000000)">
            <g id="Group-56-Copy-3" transform="translate(514.000000, 89.000000)">
                <g id="Group-29" transform="translate(145.000000, 991.000000)">
                    <g id="ic/twitter" transform="translate(33.000000, 0.000000)" filter="url(#filter-1)">
                        <g filter="url(#filter-2)" id="Twitter">
                            <g transform="translate(2.283559, 3.666667)">
                                <path d="M8.49453874,4.53593759 L7.86531413,4.45825897 C5.57493472,4.1604913 3.57399858,3.15067046 1.87509076,1.45468911 L1.04451363,0.613171707 L0.830577129,1.23459997 C0.377535046,2.6198671 0.666978536,4.08281259 1.61081617,5.06674068 C2.11419625,5.61049041 2.00093579,5.68816912 1.13260518,5.36450861 C0.830577151,5.2609372 0.566302578,5.18325864 0.54113355,5.22209792 C0.453042071,5.31272283 0.755070093,6.49084703 0.994175633,6.95691823 C1.32137271,7.60423929 1.98835127,8.23861403 2.71825241,8.61406027 L3.33489304,8.91182785 L2.6049919,8.92477477 C1.90025984,8.92477477 1.87509086,8.9377206 1.95059788,9.20959542 C2.20228792,10.0511129 3.19646357,10.9444165 4.30389972,11.3328092 L5.08413894,11.6046837 L4.40457588,12.0189692 C3.39781573,12.6145046 2.21487237,12.9511115 1.0319292,12.9770043 C0.465626603,12.9899508 0,13.0417361 0,13.0805753 C0,13.2100395 1.53530932,13.9350396 2.42880896,14.2198609 C5.10930798,15.0613784 8.29318712,14.6988793 10.6842425,13.2618264 C12.3831503,12.2390591 14.0820572,10.2064702 14.8748808,8.23861407 C15.3027539,7.18995392 15.7306283,5.27388352 15.7306283,4.35468759 C15.7306283,3.75915221 15.7683807,3.68147364 16.4731128,2.96942037 C16.8884014,2.5551349 17.2785209,2.10201015 17.3540279,1.9725459 C17.4798729,1.7265639 17.4672891,1.72656399 16.8254794,1.94665315 C15.7557968,2.33504586 15.6047824,2.28326004 16.1333315,1.70067108 C16.5234511,1.28638557 16.9890775,0.535493219 16.9890775,0.315403996 C16.9890775,0.276564769 16.8003107,0.341296841 16.5863742,0.45781464 C16.3598532,0.587278885 15.8564728,0.781475196 15.4789378,0.897992996 L14.7993751,1.11808213 L14.1827343,0.69085024 C13.8429528,0.45781464 13.3647408,0.198886191 13.1130508,0.121207674 C12.4712412,-0.0600422481 11.4896503,-0.0341494037 10.9107632,0.172993352 C9.33770039,0.755582351 8.34352467,2.2573671 8.45678518,3.90156277 L8.49453874,4.53593759 Z" id="Combined-Shape-path" fill="#FFFFFF" fill-rule="nonzero"></path>
                            </g>
                        </g>
                    </g>
                </g>
            </g>
        </g>
    </g>
</svg>